<svg width="50" height="40" viewBox="0 0 50 40" fill="none" xmlns="http://www.w3.org/2000/svg">
<path d="M25 0H7.5C3.35 0 0 3.35 0 7.5V27.5C0 31.65 3.35 35 7.5 35L5 37.5V40H7.5L12.5 35H17.5V22.5H5V5H27.5V10H32.5V7.5C32.5 3.35 29.15 0 25 0ZM7.5 25C8.875 25 10 26.125 10 27.5C10 28.875 8.875 30 7.5 30C6.125 30 5 28.875 5 27.5C5 26.125 6.125 25 7.5 25ZM46.425 14.15C46.075 13.15 45.125 12.5 44 12.5H26.025C24.875 12.5 23.95 13.15 23.575 14.15L20.025 24.425V38.2C20.025 39.15 20.8 40 21.75 40H23.3C24.25 40 25 39.05 25 38.1V35H45V38.1C45 39.05 45.775 40 46.725 40H48.25C49.2 40 49.975 39.15 49.975 38.2L50 34.775V24.425L46.425 14.15V14.15ZM26.025 15H44L46.575 22.5H23.45L26.025 15V15ZM25 30C23.625 30 22.5 28.875 22.5 27.5C22.5 26.125 23.625 25 25 25C26.375 25 27.5 26.125 27.5 27.5C27.5 28.875 26.375 30 25 30ZM45 30C43.625 30 42.5 28.875 42.5 27.5C42.5 26.125 43.625 25 45 25C46.375 25 47.5 26.125 47.5 27.5C47.5 28.875 46.375 30 45 30Z" fill="#BB9760"/>
</svg>
