<svg width="35" height="35" viewBox="0 0 35 35" fill="none" xmlns="http://www.w3.org/2000/svg">
<path d="M9.22467 18.641H13.0612V34.4355C13.0612 34.7473 13.3139 35 13.6258 35H20.1308C20.4426 35 20.6953 34.7473 20.6953 34.4355V18.7154H25.1058C25.3925 18.7154 25.6338 18.5002 25.6665 18.2154L26.3364 12.4006C26.3548 12.2406 26.3041 12.0804 26.1971 11.9604C26.0899 11.8403 25.9366 11.7715 25.7757 11.7715H20.6955V8.12655C20.6955 7.02777 21.2871 6.4706 22.4541 6.4706C22.6204 6.4706 25.7757 6.4706 25.7757 6.4706C26.0876 6.4706 26.3402 6.21781 26.3402 5.90608V0.568694C26.3402 0.256855 26.0876 0.00417742 25.7757 0.00417742H21.1981C21.1658 0.00259677 21.0941 0 20.9884 0C20.1941 0 17.4333 0.155919 15.2525 2.16221C12.8361 4.3855 13.172 7.04753 13.2523 7.50908V11.7714H9.22467C8.91283 11.7714 8.66016 12.0241 8.66016 12.3359V18.0764C8.66016 18.3882 8.91283 18.641 9.22467 18.641Z" fill="#BB9760"/>
</svg>
