<svg width="35" height="35" viewBox="0 0 35 35" fill="none" xmlns="http://www.w3.org/2000/svg">
<path d="M24.5733 0H10.4267C4.67739 0 0 4.67739 0 10.4267V24.5733C0 30.3226 4.67739 35 10.4267 35H24.5733C30.3226 35 35 30.3226 35 24.5733V10.4267C34.9999 4.67739 30.3225 0 24.5733 0ZM31.479 24.5733C31.479 28.3872 28.3872 31.479 24.5733 31.479H10.4267C6.61281 31.479 3.521 28.3872 3.521 24.5733V10.4267C3.521 6.61275 6.61281 3.521 10.4267 3.521H24.5733C28.3872 3.521 31.479 6.61275 31.479 10.4267V24.5733Z" fill="#BB9760"/>
<path d="M17.5005 8.44788C12.5091 8.44788 8.44824 12.5087 8.44824 17.5001C8.44824 22.4914 12.5091 26.5523 17.5005 26.5523C22.4919 26.5523 26.5527 22.4915 26.5527 17.5001C26.5527 12.5086 22.4919 8.44788 17.5005 8.44788ZM17.5005 23.0314C14.4456 23.0314 11.9692 20.555 11.9692 17.5001C11.9692 14.4453 14.4457 11.9689 17.5005 11.9689C20.5553 11.9689 23.0317 14.4453 23.0317 17.5001C23.0317 20.5549 20.5553 23.0314 17.5005 23.0314Z" fill="#BB9760"/>
<path d="M26.5694 10.6849C27.7674 10.6849 28.7385 9.71377 28.7385 8.51584C28.7385 7.31791 27.7674 6.3468 26.5694 6.3468C25.3715 6.3468 24.4004 7.31791 24.4004 8.51584C24.4004 9.71377 25.3715 10.6849 26.5694 10.6849Z" fill="#BB9760"/>
</svg>
