<svg width="35" height="35" viewBox="0 0 35 35" fill="none" xmlns="http://www.w3.org/2000/svg">
<path d="M8.14746 11.2603H1.12116C0.809318 11.2603 0.556641 11.513 0.556641 11.8248V34.3973C0.556641 34.7091 0.809318 34.9618 1.12116 34.9618H8.14746C8.4593 34.9618 8.71198 34.7091 8.71198 34.3973V11.8248C8.71198 11.513 8.4593 11.2603 8.14746 11.2603Z" fill="#BB9760"/>
<path d="M4.63648 0.0386963C2.0799 0.0386963 0 2.11634 0 4.6701C0 7.22499 2.0799 9.30342 4.63648 9.30342C7.19103 9.30342 9.26924 7.22487 9.26924 4.6701C9.26935 2.11634 7.19103 0.0386963 4.63648 0.0386963Z" fill="#BB9760"/>
<path d="M26.0187 10.6992C23.1967 10.6992 21.1106 11.9124 19.8453 13.2908V11.8248C19.8453 11.513 19.5926 11.2602 19.2807 11.2602H12.5518C12.24 11.2602 11.9873 11.513 11.9873 11.8248V34.3973C11.9873 34.7091 12.24 34.9618 12.5518 34.9618H19.5628C19.8746 34.9618 20.1273 34.7091 20.1273 34.3973V23.2291C20.1273 19.4657 21.1495 17.9995 23.7729 17.9995C26.6301 17.9995 26.8571 20.35 26.8571 23.4227V34.3974C26.8571 34.7092 27.1098 34.9619 27.4216 34.9619H34.4352C34.747 34.9619 34.9997 34.7092 34.9997 34.3974V22.016C34.9997 16.4199 33.9326 10.6992 26.0187 10.6992Z" fill="#BB9760"/>
</svg>
