<svg width="32" height="32" viewBox="0 0 32 32" fill="none" xmlns="http://www.w3.org/2000/svg">
<path d="M26.6667 23.4667H24.9813L24.384 22.8907C26.4747 20.4587 27.7333 17.3013 27.7333 13.8667C27.7333 6.208 21.5253 0 13.8667 0C6.208 0 0 6.208 0 13.8667C0 21.5253 6.208 27.7333 13.8667 27.7333C17.3013 27.7333 20.4587 26.4747 22.8907 24.384L23.4667 24.9813V26.6667L28.8213 32L32 28.8213L26.6667 23.4667ZM13.8667 23.4667C8.55467 23.4667 4.26667 19.1787 4.26667 13.8667C4.26667 8.55467 8.55467 4.26667 13.8667 4.26667C19.1787 4.26667 23.4667 8.55467 23.4667 13.8667C23.4667 19.1787 19.1787 23.4667 13.8667 23.4667Z" fill="#BB9760"/>
</svg>
