<svg width="35" height="35" viewBox="0 0 35 35" fill="none" xmlns="http://www.w3.org/2000/svg">
<g clip-path="url(#clip0_148_633)">
<path d="M34.2069 6.42489C33.657 6.66671 33.0917 6.8708 32.5141 7.0365C33.198 6.26961 33.7194 5.36725 34.0376 4.37982C34.109 4.15848 34.035 3.91621 33.8516 3.77146C33.6683 3.62659 33.4137 3.60923 33.212 3.72779C31.9853 4.44923 30.6618 4.96769 29.2741 5.27086C27.8763 3.91644 25.9777 3.14563 24.015 3.14563C19.872 3.14563 16.5014 6.48781 16.5014 10.5959C16.5014 10.9194 16.5221 11.2412 16.5629 11.5584C11.4219 11.1109 6.64235 8.6052 3.36025 4.61302C3.24328 4.47072 3.06309 4.39403 2.8786 4.4087C2.69401 4.42303 2.52815 4.52625 2.43489 4.68489C1.76922 5.81754 1.4173 7.11296 1.4173 8.431C1.4173 10.2262 2.06367 11.9295 3.20546 13.2604C2.85828 13.1411 2.52138 12.9921 2.19983 12.8151C2.0272 12.7199 1.81652 12.7213 1.64502 12.8188C1.47341 12.9163 1.36581 13.0957 1.3613 13.2917C1.36051 13.3248 1.36051 13.3578 1.36051 13.3913C1.36051 16.0709 2.81493 18.4834 5.03856 19.7983C4.84752 19.7794 4.6566 19.7519 4.46693 19.716C4.27138 19.679 4.0703 19.7469 3.93843 19.8948C3.80633 20.0426 3.76264 20.2486 3.82349 20.4367C4.64656 22.9847 6.76564 24.859 9.32741 25.4304C7.20268 26.75 4.77289 27.4412 2.22219 27.4412C1.68996 27.4412 1.15469 27.4102 0.630814 27.3487C0.370572 27.3181 0.121734 27.4704 0.0331046 27.7158C-0.0555244 27.9613 0.038411 28.2351 0.259814 28.3758C3.5366 30.4592 7.32552 31.5603 11.2167 31.5603C18.8664 31.5603 23.6518 27.9834 26.3191 24.9827C29.6452 21.2411 31.5529 16.2885 31.5529 11.3951C31.5529 11.1907 31.5497 10.9842 31.5434 10.7785C32.8556 9.79808 33.9855 8.61158 34.9048 7.24787C35.0445 7.04075 35.0294 6.76702 34.8676 6.57636C34.706 6.38559 34.4367 6.32391 34.2069 6.42489Z" fill="#BB9760"/>
</g>
<defs>
<clipPath id="clip0_148_633">
<rect width="35" height="34.7059" fill="white"/>
</clipPath>
</defs>
</svg>
