<svg width="70" height="96" viewBox="0 0 70 96" fill="none" xmlns="http://www.w3.org/2000/svg">
<path d="M49.5835 12H20.4168C17.2085 12 14.6127 15.6 14.6127 20L14.5835 84L35.0002 72L55.4168 84V20C55.4168 15.6 52.7918 12 49.5835 12Z" fill="#D20202"/>
<path d="M26.2578 37H24V28.2969L21.3047 29.1328V27.2969L26.0156 25.6094H26.2578V37ZM37.6172 32.2969C37.6172 33.8698 37.2917 35.0729 36.6406 35.9062C35.9896 36.7396 35.0365 37.1562 33.7812 37.1562C32.5417 37.1562 31.5938 36.7474 30.9375 35.9297C30.2812 35.112 29.9453 33.9401 29.9297 32.4141V30.3203C29.9297 28.7318 30.2578 27.526 30.9141 26.7031C31.5755 25.8802 32.526 25.4688 33.7656 25.4688C35.0052 25.4688 35.9531 25.8776 36.6094 26.6953C37.2656 27.5078 37.6016 28.6771 37.6172 30.2031V32.2969ZM35.3594 30C35.3594 29.0573 35.2292 28.3724 34.9688 27.9453C34.7135 27.513 34.3125 27.2969 33.7656 27.2969C33.2344 27.2969 32.8411 27.5026 32.5859 27.9141C32.3359 28.3203 32.2031 28.9583 32.1875 29.8281V32.5938C32.1875 33.5208 32.3125 34.2109 32.5625 34.6641C32.8177 35.112 33.224 35.3359 33.7812 35.3359C34.3333 35.3359 34.7318 35.1198 34.9766 34.6875C35.2214 34.2552 35.349 33.5938 35.3594 32.7031V30ZM39.1172 27.8125C39.1172 27.1146 39.3438 26.5495 39.7969 26.1172C40.25 25.6797 40.8438 25.4609 41.5781 25.4609C42.3229 25.4609 42.9219 25.6771 43.375 26.1094C43.8281 26.5365 44.0547 27.1172 44.0547 27.8516V28.4141C44.0547 29.1172 43.8281 29.6823 43.375 30.1094C42.9219 30.5365 42.3281 30.75 41.5938 30.75C40.8542 30.75 40.2552 30.5365 39.7969 30.1094C39.3438 29.6771 39.1172 29.0964 39.1172 28.3672V27.8125ZM40.6172 28.4141C40.6172 28.7266 40.7057 28.9792 40.8828 29.1719C41.0651 29.3594 41.3021 29.4531 41.5938 29.4531C41.8854 29.4531 42.1172 29.3568 42.2891 29.1641C42.4609 28.9714 42.5469 28.7135 42.5469 28.3906V27.8125C42.5469 27.5 42.4609 27.2474 42.2891 27.0547C42.1172 26.862 41.8802 26.7656 41.5781 26.7656C41.2917 26.7656 41.0599 26.862 40.8828 27.0547C40.7057 27.2422 40.6172 27.5052 40.6172 27.8438V28.4141ZM44.5547 34.2109C44.5547 33.5078 44.7839 32.9427 45.2422 32.5156C45.7005 32.0833 46.2943 31.8672 47.0234 31.8672C47.763 31.8672 48.3594 32.0807 48.8125 32.5078C49.2708 32.9297 49.5 33.513 49.5 34.2578V34.8203C49.5 35.5182 49.276 36.0833 48.8281 36.5156C48.3802 36.9427 47.7839 37.1562 47.0391 37.1562C46.2891 37.1562 45.6875 36.9401 45.2344 36.5078C44.7812 36.0755 44.5547 35.5026 44.5547 34.7891V34.2109ZM46.0547 34.8203C46.0547 35.1068 46.1484 35.3516 46.3359 35.5547C46.5234 35.7578 46.7578 35.8594 47.0391 35.8594C47.6745 35.8594 47.9922 35.5078 47.9922 34.8047V34.2109C47.9922 33.8984 47.9036 33.6484 47.7266 33.4609C47.5495 33.2682 47.3151 33.1719 47.0234 33.1719C46.7318 33.1719 46.4974 33.2682 46.3203 33.4609C46.1432 33.6484 46.0547 33.9062 46.0547 34.2344V34.8203ZM42.0391 36.1484L40.9375 35.5547L46.4922 26.6641L47.5938 27.2578L42.0391 36.1484ZM30.3594 50.5703C30.3594 51.6901 30.1615 52.6719 29.7656 53.5156C29.3698 54.3594 28.8021 55.0104 28.0625 55.4688C27.3281 55.9271 26.4844 56.1562 25.5312 56.1562C24.5885 56.1562 23.7474 55.9297 23.0078 55.4766C22.2682 55.0234 21.6953 54.3776 21.2891 53.5391C20.8828 52.6953 20.6771 51.7266 20.6719 50.6328V50.0703C20.6719 48.9505 20.8724 47.9661 21.2734 47.1172C21.6797 46.263 22.25 45.6094 22.9844 45.1562C23.724 44.6979 24.5677 44.4688 25.5156 44.4688C26.4635 44.4688 27.3047 44.6979 28.0391 45.1562C28.7786 45.6094 29.349 46.263 29.75 47.1172C30.1562 47.9661 30.3594 48.9479 30.3594 50.0625V50.5703ZM27.9844 50.0547C27.9844 48.862 27.7708 47.9557 27.3438 47.3359C26.9167 46.7161 26.3073 46.4062 25.5156 46.4062C24.7292 46.4062 24.1224 46.7135 23.6953 47.3281C23.2682 47.9375 23.0521 48.8333 23.0469 50.0156V50.5703C23.0469 51.7318 23.2604 52.6328 23.6875 53.2734C24.1146 53.9141 24.7292 54.2344 25.5312 54.2344C26.3177 54.2344 26.9219 53.9271 27.3438 53.3125C27.7656 52.6927 27.9792 51.7917 27.9844 50.6094V50.0547ZM38.9062 51.3516H34.4062V56H32.0625V44.625H39.4688V46.5234H34.4062V49.4609H38.9062V51.3516ZM47.6719 51.3516H43.1719V56H40.8281V44.625H48.2344V46.5234H43.1719V49.4609H47.6719V51.3516Z" fill="white"/>
</svg>
