<svg width="617" height="617" viewBox="0 0 617 617" fill="none" xmlns="http://www.w3.org/2000/svg">
<path d="M274.697 134.263C285.767 132.51 296.941 131.491 308.146 131.212C325.374 130.908 342.412 134.917 342.412 134.917L342.934 66.0187C349.35 66.6989 355.717 67.7788 361.998 69.252C372.279 71.6754 384.06 75.7117 384.06 75.7117L308.357 9.90357e-06L231.999 76.3654C231.999 76.3654 241.564 73.0063 251.878 70.3534C262.193 67.7005 273.257 65.755 273.257 65.755L274.697 134.263Z" fill="#C4C4C4"/>
<path d="M134.249 342.454C132.496 331.382 131.477 320.207 131.198 309.001C130.894 291.771 134.903 274.732 134.903 274.732L66.0115 274.209C66.6917 267.793 67.7715 261.425 69.2445 255.143C71.6676 244.861 75.7035 233.079 75.7035 233.079L-0.000173422 308.79L76.3571 385.156C76.3571 385.156 72.9984 375.59 70.3458 365.275C67.6931 354.959 65.7479 343.894 65.7479 343.894L134.249 342.454Z" fill="#C4C4C4"/>
<path d="M161.04 209.968C167.629 200.9 174.81 192.277 182.536 184.156C194.502 171.758 209.384 162.544 209.384 162.544L161.04 113.456C166.058 109.4 171.323 105.661 176.807 102.26C185.79 96.7034 196.974 91.2259 196.974 91.2259H89.9131L89.9131 199.223C89.9131 199.223 94.301 190.084 99.7189 180.914C105.137 171.744 111.585 162.544 111.585 162.544L161.04 209.968Z" fill="#C4C4C4"/>
<path d="M161.041 407.085C167.63 416.154 174.811 424.776 182.537 432.897C194.504 445.294 209.386 454.508 209.386 454.508L161.041 503.596C166.059 507.652 171.325 511.392 176.808 514.792C185.791 520.352 196.976 525.826 196.976 525.826H89.9144L89.9144 417.829C89.9144 417.829 94.3024 426.968 99.7202 436.139C105.138 445.309 111.586 454.508 111.586 454.508L161.041 407.085Z" fill="#C4C4C4"/>
<path d="M342.543 482.737C331.473 484.49 320.299 485.509 309.094 485.788C291.867 486.092 274.829 482.083 274.829 482.083L274.306 550.981C267.891 550.301 261.524 549.221 255.242 547.748C244.961 545.325 233.18 541.288 233.18 541.288L308.884 617L385.241 540.635C385.241 540.635 375.677 543.994 365.362 546.647C355.047 549.3 343.984 551.245 343.984 551.245L342.543 482.737Z" fill="#C4C4C4"/>
<path d="M482.454 274.6C484.206 285.672 485.225 296.847 485.504 308.053C485.808 325.282 481.799 342.322 481.799 342.322L550.691 342.844C550.01 349.261 548.931 355.628 547.458 361.91C545.035 372.193 540.999 383.975 540.999 383.975L616.702 308.263L540.345 231.898C540.345 231.898 543.704 241.463 546.356 251.779C549.009 262.095 550.954 273.16 550.954 273.16L482.454 274.6Z" fill="#C4C4C4"/>
<path d="M407.855 161.619C416.923 168.208 425.544 175.39 433.665 183.116C446.061 195.084 455.274 209.968 455.274 209.968L504.357 161.619C508.413 166.637 512.152 171.903 515.551 177.387C521.108 186.371 526.585 197.556 526.585 197.556V90.4839H418.599C418.599 90.4839 427.737 94.8723 436.906 100.291C446.076 105.709 455.274 112.158 455.274 112.158L407.855 161.619Z" fill="#C4C4C4"/>
<path d="M407.855 455.435C416.923 448.846 425.544 441.664 433.665 433.938C446.061 421.97 455.274 407.086 455.274 407.086L504.357 455.435C508.413 450.417 512.152 445.151 515.551 439.667C521.108 430.683 526.585 419.497 526.585 419.497V526.57H418.599C418.599 526.57 427.737 522.181 436.906 516.763C446.076 511.344 455.274 504.896 455.274 504.896L407.855 455.435Z" fill="#C4C4C4"/>
<path d="M308 414C365.99 414 413 366.99 413 309C413 251.01 365.99 204 308 204C250.01 204 203 251.01 203 309C203 366.99 250.01 414 308 414Z" fill="#BD9963"/>
</svg>
